# xmcd
#
# Track frame offsets: 
#        150
#        12790
#        27207
#        36747
#        48815
#        62752
#        72990
#        80535
#        85157
#        92667
#        126895
#        172695
#        213025
#        257065
#        265420
#        277317
#        293245
#        303442
#        310460
#        319705
#        326247
#
# Disc length: 4560 seconds
#
# Revision: 0
# Processed by: cddbd v1.5.1PL0 Copyright (c) Steve Scherf et al.
# Submitted via: ExactAudioCopy v0.95a5
#
DISCID=3111ce15
DTITLE=Marin Marais - Violes Esgales
DYEAR=1995
DGENRE=Classical
TTITLE0=Suite 2 for two viols in G Major - Prélude
TTITLE1=Suite 2 for two viols in G Major - Allemande
TTITLE2=Suite 2 for two viols in G Major - Courante
TTITLE3=Suite 2 for two viols in G Major - Sarabande
TTITLE4=Suite 2 for two viols in G Major - Gigue
TTITLE5=Suite 2 for two viols in G Major - Gavotte en Rondeau
TTITLE6=Suite 2 for two viols in G Major - Menuet
TTITLE7=Suite 2 for two viols in G Major - Gavotte
TTITLE8=Suite 2 for two viols in G Major - Fantaisie en Echo
TTITLE9=Suite 2 for two viols in G Major - Chaconne
TTITLE10=Suite 2 for two viols in G Major - Tombeau de Monsieur Mélito
TTITLE10=n
TTITLE11=Augustin Dautrecourt dit Sainte-Colombe - Concert for two equ
TTITLE11=al bass viols No. 41 - Le retour
TTITLE12=Augustin Dautrecourt dit Sainte-Colombe - Concert for two equ
TTITLE12=al bass viols No. 44 - Tombeau Les Regrets
TTITLE13=Francois Couperin - Concert No. 13 for two viols - Vivement
TTITLE14=Francois Couperin - Concert No. 13 for two viols - Air (agréa
TTITLE14=blement)
TTITLE15=Francois Couperin - Concert No. 13 for two viols - Sarabande 
TTITLE15=(tendrement)
TTITLE16=Francois Couperin - Concert No. 13 for two viols - Chaconne l
TTITLE16=égère
TTITLE17=Francois Couperin - Concert No. 12 for two viols - [Prélude]
TTITLE18=Francois Couperin - Concert No. 12 for two viols - Badinage
TTITLE19=Francois Couperin - Concert No. 12 for two viols - Lentement 
TTITLE19=et pathétiquement
TTITLE20=Francois Couperin - Concert No. 12 for two viols - Air (graci
TTITLE20=eusement et légèrement
EXTD=
EXTT0=
EXTT1=
EXTT2=
EXTT3=
EXTT4=
EXTT5=
EXTT6=
EXTT7=
EXTT8=
EXTT9=
EXTT10=
EXTT11=
EXTT12=
EXTT13=
EXTT14=
EXTT15=
EXTT16=
EXTT17=
EXTT18=
EXTT19=
EXTT20=
PLAYORDER=
